PathFileType  4	(X/Y/Z) C:\Users\antoi\Documents\MyRepositories\mobilecap\ResultsAnalysis
DataRate	CameraRate	NumFrames	NumMarkers	Units	OrigDataRate	OrigDataStartFrame	OrigNumFrames
100.0	100.0	4	51	mm	100.0	98	261
Frame#	Time	r_knee			r_shank_antsup			r_ankle			r_calc			r_5meta			r_toe			L_knee			L_shank_antsup			L_ankle			L_calc			L_5meta			L_toe			r_sh2			r_sh3			r_sh4			L_sh2			L_sh3			r_thigh1			r_thigh2			r_thigh3			r_thigh4			r_thigh5			L_thigh1			L_thigh2			L_thigh3			L_thigh4			r.ASIS			r.PSIS			L.ASIS			L.PSIS			C7			R_Shoulder			L_Shoulder			R_Sternum			L_Sternum			R_humerus			R_elbow_med			R_elbow_lat			R_forearm			R_wrist_radius			R_wrist_ulna			L_humerus			L_elbow_med			L_elbow_lat			L_forearm			L_wrist_radius			L_wrist_ulna			R_HJC			L_HJC			R_HJC_reg			L_HJC_reg			
		X1	Y1	Z1	X2	Y2	Z2	X3	Y3	Z3	X4	Y4	Z4	X5	Y5	Z5	X6	Y6	Z6	X7	Y7	Z7	X8	Y8	Z8	X9	Y9	Z9	X10	Y10	Z10	X11	Y11	Z11	X12	Y12	Z12	X13	Y13	Z13	X14	Y14	Z14	X15	Y15	Z15	X16	Y16	Z16	X17	Y17	Z17	X18	Y18	Z18	X19	Y19	Z19	X20	Y20	Z20	X21	Y21	Z21	X22	Y22	Z22	X23	Y23	Z23	X24	Y24	Z24	X25	Y25	Z25	X26	Y26	Z26	X27	Y27	Z27	X28	Y28	Z28	X29	Y29	Z29	X30	Y30	Z30	X31	Y31	Z31	X32	Y32	Z32	X33	Y33	Z33	X34	Y34	Z34	X35	Y35	Z35	X36	Y36	Z36	X37	Y37	Z37	X38	Y38	Z38	X39	Y39	Z39	X40	Y40	Z40	X41	Y41	Z41	X42	Y42	Z42	X43	Y43	Z43	X44	Y44	Z44	X45	Y45	Z45	X46	Y46	Z46	X47	Y47	Z47	X48	Y48	Z48	X49	Y49	Z49	X50	Y50	Z50	X51	Y51	Z51	

98	0.97000000	-855.10003	871.14572	-417.30864	-897.06160	847.40379	-386.88985	-1107.68047	558.00048	-433.13292	-1169.23602	577.05194	-489.42985	-1081.47250	416.67539	-403.70616	-1031.79700	402.65713	-453.85803	-846.59753	865.15453	-733.81734	-859.54651	780.01878	-747.08598	-1098.44302	560.00129	-719.39644	-1163.68534	584.84566	-673.28991	-1071.83068	420.97313	-730.99462	-1028.28419	407.92798	-675.90481	-966.61264	755.67185	-381.65029	-838.81197	807.41955	-420.57138	-906.91346	715.19126	-427.43129	-920.78776	842.01913	-758.36972	-998.38592	745.51247	-759.17863	-775.29794	1159.92102	-486.36918	-758.08563	1052.24164	-468.58263	-775.48229	1033.45962	-406.04215	-833.52203	1163.48197	-390.48299	-824.04377	1049.43075	-381.81736	-828.53861	1185.68378	-748.85172	-822.00457	1043.89578	-760.81801	-940.46779	1179.03740	-746.66131	-934.58020	1039.06878	-727.52307	-783.29455	1331.68521	-452.68935	-957.74652	1403.91566	-527.05009	-791.47181	1317.94030	-685.34481	-961.54454	1402.13811	-625.15340	-772.95201	1829.84591	-574.44230	-714.84537	1809.49646	-444.84083	-726.65551	1792.05610	-708.93020	-685.65669	1718.72781	-546.39528	-687.86081	1711.11903	-582.13343	-640.42933	1631.53543	-306.08941	-642.72091	1499.38052	-320.07767	-613.85548	1543.01935	-269.13053	-515.88698	1624.26907	-332.90619	-471.21301	1684.17729	-400.70295	-437.65285	1662.58108	-381.34686	-688.47758	1598.92923	-837.80449	-696.76075	1461.67427	-813.18769	-669.28322	1491.43334	-870.61974	-557.86687	1560.60712	-798.53864	-500.91939	1611.02268	-722.37674	-472.49240	1583.35265	-740.99165	-873.77884	1267.65507	-482.51751	-887.46104	1269.22470	-672.69076	-866.79454	1273.90773	-480.68579	-872.74858	1271.12134	-634.45992	
99	0.98000000	-834.59728	879.51645	-416.32785	-875.86419	856.68833	-385.72818	-1094.02404	573.48297	-433.13963	-1155.10134	591.75052	-490.32250	-1068.24703	432.14621	-402.25364	-1018.57105	417.33204	-452.18381	-826.23253	873.91850	-734.72093	-839.57760	788.77859	-747.42384	-1082.67989	573.34212	-719.93921	-1148.39222	599.33655	-675.43595	-1056.88931	434.33119	-729.44456	-1013.80009	422.18084	-673.48434	-947.96497	766.11382	-381.28544	-818.77247	815.27245	-419.88976	-889.10449	724.34431	-427.64310	-899.49134	851.99472	-759.41757	-979.12716	757.01940	-760.03088	-765.10019	1170.10934	-485.73568	-744.68279	1062.32924	-468.74339	-760.74797	1044.12286	-404.87074	-823.36707	1172.16717	-389.85492	-810.11969	1058.44784	-380.92805	-818.07281	1194.60902	-749.31072	-807.59875	1053.00185	-761.52646	-929.91594	1184.76064	-746.75427	-919.74453	1044.99949	-727.75095	-775.16579	1339.75601	-453.05674	-949.64684	1411.36567	-527.52371	-782.86997	1326.54793	-685.84405	-953.17506	1409.59917	-625.41582	-762.83790	1837.68963	-574.64438	-704.83438	1816.30944	-443.86316	-716.98464	1798.66996	-709.89881	-676.48837	1725.95623	-546.77747	-678.80285	1718.26077	-582.14301	-637.67106	1634.62614	-305.11901	-645.45863	1502.81458	-320.41657	-614.76668	1545.27479	-268.32690	-513.00312	1622.55132	-331.23098	-464.83991	1680.15769	-398.52050	-432.52353	1657.64017	-378.09769	-685.40957	1604.51216	-839.61918	-697.76117	1467.55082	-814.32084	-669.86385	1496.37366	-872.33712	-554.52737	1559.96420	-800.96219	-494.26637	1606.73202	-724.78505	-467.26115	1578.33463	-744.81946	-865.14840	1275.33551	-483.15044	-878.58475	1277.29963	-673.33759	-858.42933	1281.89452	-481.30955	-863.97353	1279.11795	-635.15542	
100	0.99000000	-813.69112	887.37795	-415.42460	-854.59558	864.88526	-386.32812	-1078.86738	587.82573	-433.28766	-1139.80936	606.09633	-491.02042	-1054.01254	447.07309	-400.80119	-1004.53026	431.16362	-450.46156	-805.30614	882.10871	-735.44040	-819.27356	797.49906	-747.90134	-1066.17268	585.96135	-720.84346	-1132.43837	612.92305	-677.72508	-1041.08437	446.71668	-727.63541	-997.97546	435.86484	-671.52969	-929.41848	775.86162	-381.49929	-798.54691	822.76841	-419.57531	-870.49374	733.64288	-427.56627	-877.99786	861.77955	-760.27609	-959.57414	768.48676	-760.54043	-755.09792	1179.53123	-485.38739	-730.91872	1072.29214	-468.25193	-745.93926	1054.17452	-403.98437	-813.20547	1179.90017	-389.29892	-795.88592	1066.79280	-380.09088	-807.40754	1202.53073	-749.55287	-792.55575	1061.43746	-762.10162	-919.08646	1189.20361	-747.29336	-904.26774	1049.87982	-728.31320	-767.50289	1346.59528	-453.28505	-942.07693	1417.61676	-528.16539	-774.72844	1333.58283	-686.38026	-945.35424	1415.79864	-625.75066	-752.58247	1844.41701	-574.80310	-694.67141	1821.81378	-442.68924	-707.06448	1804.07092	-711.10652	-667.22666	1731.85932	-547.40069	-669.61979	1724.40437	-582.00990	-634.81049	1636.45334	-304.75206	-648.24817	1505.72606	-320.98302	-616.13952	1546.53976	-267.71181	-509.51489	1618.14522	-329.45314	-456.95020	1672.65107	-395.76292	-426.43703	1648.63800	-374.71271	-682.06668	1608.46641	-840.86818	-698.96088	1472.40516	-815.28370	-670.49470	1500.09799	-873.70067	-550.76299	1556.99427	-803.73389	-486.80813	1599.50463	-727.74780	-461.59729	1570.05209	-749.10595	-857.10353	1281.82594	-483.68311	-870.25770	1283.93026	-673.88898	-850.57847	1288.52818	-481.76339	-855.75078	1285.65806	-635.80632	
101	1.00000000	-792.69268	895.13527	-414.51944	-833.68136	873.11510	-387.06607	-1062.18564	600.36888	-433.76646	-1123.06301	619.67660	-491.52209	-1039.29329	460.49607	-399.84013	-989.85680	443.61146	-448.89153	-784.10515	889.95073	-736.11978	-798.97160	806.07143	-748.27363	-1048.94050	597.36627	-721.48073	-1115.38537	625.54469	-679.75146	-1025.07006	457.39152	-725.48299	-981.73758	448.04926	-670.18126	-910.36455	785.65484	-381.91140	-778.07579	830.35459	-418.93389	-851.34618	742.76948	-427.17026	-856.64449	871.21945	-760.92321	-939.73006	779.47189	-761.08102	-745.18961	1188.25386	-485.10252	-716.66624	1082.14931	-467.32968	-731.10740	1063.59602	-403.18811	-802.94041	1186.80511	-388.68343	-781.39630	1074.52390	-379.18591	-796.49720	1209.62784	-749.64508	-776.93704	1069.19918	-762.25330	-907.77972	1192.68354	-748.36754	-888.25877	1054.08167	-729.43079	-760.28053	1352.22941	-453.36332	-934.99365	1422.66083	-528.75403	-766.96349	1339.04930	-686.51829	-937.93253	1420.80308	-626.26867	-742.18546	1850.03936	-574.94701	-684.43585	1826.09587	-441.33861	-696.92077	1808.32160	-712.49411	-657.84838	1736.51616	-548.21338	-660.52244	1729.21573	-582.12779	-631.85924	1637.10496	-304.77418	-650.79613	1508.06537	-321.96716	-617.83198	1546.97554	-267.18543	-505.59595	1611.16031	-327.40031	-448.06214	1661.79870	-392.39623	-419.74490	1635.83662	-370.90853	-678.46295	1610.96381	-841.71070	-699.98231	1476.17396	-816.11806	-671.13259	1502.73393	-874.69787	-546.80871	1551.70524	-806.53169	-478.86973	1589.53217	-731.34349	-455.80480	1558.72745	-753.67018	-849.64351	1287.16561	-483.95837	-862.35966	1289.12186	-674.19461	-843.20627	1293.80768	-482.10517	-847.85148	1290.87216	-636.19875	
